<svg width="110" height="67" viewBox="0 0 110 67" fill="none" xmlns="http://www.w3.org/2000/svg">
<path d="M61.5068 67L45.7628 14.584L30.8828 67H22.5308L9.18675 9.784C8.86675 8.312 8.61075 7.288 8.41875 6.712C8.22675 6.072 7.93875 5.656 7.55475 5.464C7.23475 5.272 6.72275 5.144 6.01875 5.08L0.73875 4.408V1.72H27.3308V4.408L22.0508 5.08C21.0268 5.208 20.4828 5.464 20.4188 5.848C20.3548 6.232 20.5468 7.544 20.9948 9.784L30.9788 54.52L45.6668 1.72H53.6348L69.2828 53.56L79.4588 9.784C79.9708 7.544 80.1628 6.232 80.0348 5.848C79.9068 5.464 79.3628 5.208 78.4028 5.08L73.1228 4.408V1.72H91.7468V4.408L86.4668 5.08C85.7628 5.144 85.2508 5.272 84.9308 5.464C84.6108 5.656 84.3228 6.072 84.0668 6.712C83.8748 7.288 83.6188 8.312 83.2988 9.784L69.9548 67H61.5068ZM109.841 8.344C109.841 10.776 109.009 13.72 107.345 17.176C105.745 20.568 103.313 24.152 100.049 27.928L97.8405 26.008C100.017 23.384 101.521 21.048 102.353 19C103.249 16.952 103.729 15.064 103.793 13.336H103.505C101.649 13.336 100.145 12.76 98.9925 11.608C97.8405 10.456 97.2645 8.92 97.2645 7C97.2645 5.144 97.8405 3.64 98.9925 2.488C100.145 1.33599 101.649 0.759995 103.505 0.759995C105.361 0.759995 106.865 1.432 108.017 2.776C109.233 4.056 109.841 5.912 109.841 8.344Z" fill="#FF7A00"/>
</svg>
